<svg aria-hidden="true" style="position:absolute;width:0;height:0;overflow:hidden" xmlns="http://www.w3.org/2000/svg">
  <defs>
    <symbol id="close" viewBox="0 0 30 32">
      <path d="m16.219 14.826 4.928-4.924a1.012 1.012 0 0 0-1.43-1.428l-4.928 4.873-4.958-4.954a1.013 1.013 0 0 0-1.43 1.428l4.948 5.005-4.846 4.782a1.002 1.002 0 0 0-.284 1.139 1.014 1.014 0 0 0 1.714.29l4.836-4.833 4.806 4.802a1.013 1.013 0 0 0 1.43-1.428l-4.786-4.751z"/>
    </symbol>
    <symbol id="menu" viewBox="0 0 32 32">
      <path d="M2.666 8A1.335 1.335 0 0 1 4 6.666h24A1.33 1.33 0 0 1 29.333 8 1.333 1.333 0 0 1 28 9.334H4A1.335 1.335 0 0 1 2.666 8zm0 8.043A1.33 1.33 0 0 1 4 14.71h24a1.333 1.333 0 1 1 0 2.666H4a1.333 1.333 0 0 1-1.334-1.333zM4 22.752a1.337 1.337 0 0 0-1.334 1.333A1.33 1.33 0 0 0 4 25.418h24a1.333 1.333 0 1 0 0-2.666H4z"/>
    </symbol>
    <symbol id="read-more" viewBox="0 0 34 32">
<path d="M21.931 15.709c0.353 0.353 0.353 0.924 0 1.277l-9.206 9.206c-0.353 0.353-0.924 0.353-1.277 0l-0.426-0.426c-0.353-0.353-0.353-0.924 0-1.277l8.142-8.142-8.142-8.142c-0.353-0.353-0.353-0.924 0-1.277l0.426-0.426c0.353-0.353 0.924-0.353 1.277 0l9.206 9.206z"></path>
</symbol>
<symbol id="icon-right" viewBox="0 0 17 32">
<path stroke-linejoin="miter" stroke-linecap="butt" stroke-miterlimit="4" stroke-width="1.4545" d="M16.349 15.605v0c0.054 0.051 0.096 0.112 0.125 0.18s0.044 0.141 0.044 0.215c0 0.074-0.015 0.147-0.044 0.215s-0.072 0.129-0.125 0.18v0l-14.186 13.516c-0.101 0.097-0.236 0.151-0.376 0.151-0.138 0-0.271-0.052-0.371-0.146l-0.008-0.008 0-0-0.014-0.013c-0.044-0.041-0.078-0.091-0.102-0.147s-0.036-0.115-0.036-0.175 0.012-0.12 0.036-0.175c0.024-0.055 0.058-0.105 0.102-0.147l0.001-0.001 13.911-13.249-13.912-13.255c-0.044-0.041-0.078-0.091-0.102-0.147s-0.036-0.115-0.036-0.175c0-0.060 0.012-0.12 0.036-0.175s0.058-0.105 0.102-0.147l0 0 0.021-0.021c0.101-0.094 0.234-0.146 0.371-0.146 0.14 0 0.275 0.054 0.376 0.151l0 0 14.186 13.516z"></path>
</symbol>
<symbol id="icon-left" viewBox="0 0 17 32">
<path stroke-linejoin="miter" stroke-linecap="butt" stroke-miterlimit="4" stroke-width="1.4545" d="M1.105 16.395v0c-0.053-0.051-0.096-0.112-0.125-0.18s-0.044-0.141-0.044-0.215c0-0.074 0.015-0.147 0.044-0.215s0.072-0.129 0.125-0.18v-0l14.186-13.516c0.102-0.097 0.236-0.151 0.376-0.151 0.138 0 0.271 0.052 0.371 0.146l0.008 0.008-0 0 0.014 0.013c0.044 0.041 0.078 0.091 0.102 0.147s0.036 0.115 0.036 0.175-0.012 0.12-0.036 0.175c-0.024 0.055-0.059 0.105-0.102 0.147l-0.001 0.001-13.911 13.249 13.912 13.255c0.044 0.041 0.078 0.091 0.102 0.147s0.036 0.115 0.036 0.175c0 0.060-0.012 0.12-0.036 0.175s-0.059 0.105-0.102 0.147l-0-0-0.013 0.013-0.008 0.008c-0.101 0.094-0.233 0.146-0.371 0.146-0.14 0-0.275-0.054-0.376-0.151l-0-0-14.186-13.516z"></path>
</symbol>
  </defs>
</svg>
